# xmcd
#
# Track frame offsets:
#	150
#	15077
#	30175
#	52645
#	65490
#	77112
#	99600
#	113760
#	127800
#	143317
#	158225
#	170277
#	186497
#	200392
#	217759
#	233572
#
# Disc length: 3316 seconds
#
# Revision: 1
# Processed by: cddbd v1.5.2PL0 Copyright (c) Steve Scherf et al.
# Submitted via: audiograbber 1.83.01
#
DISCID=b40cf210
DTITLE=Harald Thommesen - Ups and downs
DYEAR=1995
DGENRE=Country
TTITLE0=Ups And Downs
TTITLE1=My Tears Roll For You
TTITLE2=Mamma´s Old Story
TTITLE3=Back On The Road
TTITLE4=Pioneers
TTITLE5=Playing My Songs
TTITLE6=Singing The Phone
TTITLE7=My Dream
TTITLE8=The Forgotten Hero
TTITLE9=My Lonely Heart
TTITLE10=Sealed With A Kiss
TTITLE11=Jusy One Look
TTITLE12=Coverd Wagons
TTITLE13=Country Man
TTITLE14=The Encounter
TTITLE15=The Intercity Happiness Express
EXTD=
EXTT0=
EXTT1=
EXTT2=
EXTT3=
EXTT4=
EXTT5=
EXTT6=
EXTT7=
EXTT8=
EXTT9=
EXTT10=
EXTT11=
EXTT12=
EXTT13=
EXTT14=
EXTT15=
PLAYORDER=
